# xmcd
#
# Track frame offsets: 
#        150
#        17679
#        32897
#        45524
#        61111
#        79110
#        95793
#        116589
#        134701
#        151450
#        165335
#        181836
#        195400
#
# Disc length: 2794 seconds
#
# Revision: 0
# Processed by: cddbd v1.5.2PL0 Copyright (c) Steve Scherf et al.
# Submitted via: ExactAudioCopyFreeDBPlugin 1.0
#
DISCID=a20ae80d
DTITLE=H.P. Lange - Motorblues
DYEAR=2013
DGENRE=Blues
TTITLE0=Take This Hammer
TTITLE1=Good And Greasy
TTITLE2=Sylvester's Tractor Rag
TTITLE3=You Don't Know My Mind
TTITLE4=Catfish Blues
TTITLE5=Leaving Aberdeen
TTITLE6=John Henry
TTITLE7=In Time
TTITLE8=Take Me Back
TTITLE9=Big Red Tractor
TTITLE10=Ruben's Train
TTITLE11=The Things That You Do
TTITLE12=Hot Tamales
EXTD=
EXTT0=
EXTT1=
EXTT2=
EXTT3=
EXTT4=
EXTT5=
EXTT6=
EXTT7=
EXTT8=
EXTT9=
EXTT10=
EXTT11=
EXTT12=
PLAYORDER=
